<?xml version="1.0" encoding="iso-8859-1"?>
<!-- Generator: Adobe Illustrator 17.1.0, SVG Export Plug-In . SVG Version: 6.00 Build 0)  -->
<!DOCTYPE svg PUBLIC "-//W3C//DTD SVG 1.1//EN" "http://www.w3.org/Graphics/SVG/1.1/DTD/svg11.dtd">
<svg version="1.1" id="Layer_1" xmlns="http://www.w3.org/2000/svg" xmlns:xlink="http://www.w3.org/1999/xlink" x="0px" y="0px"
	 viewBox="0 0 64 64" style="enable-background:new 0 0 64 64;" xml:space="preserve">
<polygon points="34.895,27.316 25.796,39 31.564,39 29.105,47.684 38.204,36 32.436,36 "/>
<path d="M37,14H27c-1.105,0-2,0.895-2,2v2h-4c-1.654,0-3,1.346-3,3v34c0,1.654,1.346,3,3,3h22c1.654,0,3-1.346,3-3V21
	c0-1.654-1.346-3-3-3h-4v-2C39,14.895,38.105,14,37,14z M43,20c0.552,0,1,0.448,1,1v34c0,0.552-0.448,1-1,1H21c-0.552,0-1-0.448-1-1
	V21c0-0.552,0.448-1,1-1h6h10H43z"/>
</svg>
