<?xml version="1.0" encoding="iso-8859-1"?>
<!-- Generator: Adobe Illustrator 16.0.0, SVG Export Plug-In . SVG Version: 6.00 Build 0)  -->
<!DOCTYPE svg PUBLIC "-//W3C//DTD SVG 1.1//EN" "http://www.w3.org/Graphics/SVG/1.1/DTD/svg11.dtd">
<svg version="1.1" id="Layer_1" xmlns="http://www.w3.org/2000/svg" xmlns:xlink="http://www.w3.org/1999/xlink" x="0px" y="0px"
	 width="512px" height="512px" viewBox="0 0 512 512" style="enable-background:new 0 0 512 512;" xml:space="preserve">
<path d="M469.769,139.982c25.862-25.925,25.842-68.056-0.06-93.957c-25.662-25.663-67.245-25.903-93.226-0.752l-28.399-1.736
	l1.468,23.988l-23.989-1.467l1.467,23.989l-23.991-1.466l1.468,23.986l-23.989-1.467l1.469,23.987l-23.987-1.468l1.468,23.99
	l-23.991-1.465l1.467,23.988l-23.99-1.466l1.465,23.99l-23.992-1.464l1.467,23.988l-23.989-1.463l1.461,23.994l-23.994-1.462
	l1.341,22.025c-30.113-22.768-73.278-20.448-100.711,6.986l-23.055,23.053l-0.098,59.479l52.843-52.843
	c8.571-8.573,20.527-11.742,31.605-9.52l-63.215,63.216l-13.794,13.794l18.519,18.519c-3.167,20.279,3.035,41.749,18.626,57.341
	c15.591,15.588,37.062,21.791,57.341,18.627l18.479,18.479l27.931-27.931l71.666-71.667c4.812-4.812,5.426-12.195,1.898-17.694
	l22.876,1.346l-1.415-24.041l24.041,1.415l-1.415-24.041l24.042,1.411l-1.413-24.04l24.041,1.414l-1.414-24.038l24.039,1.414
	l-1.414-24.042l24.044,1.414l-1.416-24.042l24.042,1.413l-1.413-24.043l24.045,1.411l-1.416-24.04l24.043,1.41l-1.411-24.047
	l24.046,1.408L469.769,139.982z M445.73,116.066l-226.261,226.26l-46.058-46.059L399.67,70.006
	c12.698-12.698,33.362-12.699,46.059,0C458.428,82.705,458.428,103.367,445.73,116.066z"/>
</svg>
