<?xml version="1.0" encoding="utf-8"?>
<!-- Generator: Adobe Illustrator 15.0.0, SVG Export Plug-In . SVG Version: 6.00 Build 0)  -->
<!DOCTYPE svg PUBLIC "-//W3C//DTD SVG 1.1//EN" "http://www.w3.org/Graphics/SVG/1.1/DTD/svg11.dtd">
<svg version="1.1" id="Layer_1" xmlns="http://www.w3.org/2000/svg" xmlns:xlink="http://www.w3.org/1999/xlink" x="0px" y="0px"
	 width="64px" height="64px" viewBox="0 0 64 64" enable-background="new 0 0 64 64" xml:space="preserve">
<g>
	<path d="M57.031,48.331l-0.056-0.107c-0.124-0.232-0.364-0.931-0.697-1.897c-1.474-4.298-4.922-14.34-12.789-27.28v-8.828
		c1.327-0.158,2.362-1.29,2.365-2.658c0-1.476-1.203-2.679-2.683-2.679L20.83,4.874c-1.476,0.007-2.677,1.212-2.681,2.686
		c0.002,1.363,1.026,2.489,2.344,2.654l0.027,8.835C11.481,33.905,7.876,45.194,6.986,48.303l-0.045,0.15
		c-1.039,3.091-0.802,6.024,0.65,8.048c1.234,1.715,3.206,2.625,5.702,2.625h37.418c2.491,0,4.461-0.91,5.698-2.633
		C57.871,54.459,58.104,51.497,57.031,48.331z M50.711,57.182H13.293c-1.844,0-3.271-0.627-4.125-1.813
		c-1.082-1.508-1.238-3.765-0.45-6.146c0.02-0.04,0.025-0.054,0.083-0.255c0.906-3.115,4.556-14.437,13.559-29.21l0.102-0.165V8.294
		H20.83c-0.406,0-0.739-0.33-0.739-0.731c0-0.41,0.336-0.745,0.747-0.749L43.18,6.82c0.404,0,0.734,0.333,0.734,0.736
		c-0.002,0.408-0.335,0.738-0.743,0.738h-1.625l0.013,11.188l0.041,0.165l0.09,0.176c6.504,10.672,9.749,19.454,11.688,24.697
		c0.767,2.074,1.321,3.574,1.803,4.459c0.029,0.054,0.054,0.097,0.058,0.101c0.825,2.485,0.679,4.774-0.406,6.282
		C53.978,56.551,52.552,57.182,50.711,57.182z"/>
	<path d="M36.607,31.137l-0.5-0.186c-1.386-0.53-2.81-0.797-4.232-0.797c-2.446,0-4.02,0.788-4.084,0.822l-0.417,0.211l1.637,8.524
		l-8.1,2.421l0.002,0.47c0.007,0.415,0.174,4.14,3.816,7.385l0.399,0.357l6.914-5.751l6.833,5.68l0.397-0.354
		c3.644-3.241,3.813-6.973,3.817-7.389l0.004-0.469l-8.318-2.485L36.607,31.137z M28.516,41.154c0.083,0.885,0.422,2.31,1.708,3.334
		l-5.059,4.208c-2.26-2.213-2.826-4.63-2.963-5.654L28.516,41.154z M31.875,31.398c1.097,0,2.204,0.179,3.287,0.534l-1.396,6.428
		c-0.569-0.258-1.174-0.383-1.799-0.383c-0.79,0-1.472,0.204-1.946,0.404l-1.243-6.471C29.349,31.703,30.439,31.398,31.875,31.398z
		 M29.748,40.398l0.063-0.494l0.107-0.075c0.011-0.007,0.904-0.608,2.048-0.608c0.668,0,1.298,0.204,1.872,0.604l0.385,0.272
		l0.031,0.236c0.003,0.021,0.269,2.386-1.81,3.474l-0.512,0.266l-0.376-0.197C29.451,42.773,29.745,40.431,29.748,40.398z
		 M41.805,42.974c-0.137,1.021-0.699,3.435-2.968,5.651l-5.057-4.208c1.282-1.021,1.626-2.45,1.706-3.334L41.805,42.974z"/>
</g>
</svg>
