<?xml version="1.0" encoding="utf-8"?>
<!-- Generator: Adobe Illustrator 15.0.0, SVG Export Plug-In . SVG Version: 6.00 Build 0)  -->
<!DOCTYPE svg PUBLIC "-//W3C//DTD SVG 1.1//EN" "http://www.w3.org/Graphics/SVG/1.1/DTD/svg11.dtd">
<svg version="1.1" id="Layer_1" xmlns="http://www.w3.org/2000/svg" xmlns:xlink="http://www.w3.org/1999/xlink" x="0px" y="0px"
	 width="26px" height="26px" viewBox="0 0 26 26" enable-background="new 0 0 26 26" xml:space="preserve">
<path d="M18.71,7.745c-0.363-0.943-1.27-1.586-2.316-1.586c-0.451,0-0.884,0.12-1.263,0.344c-0.455-0.43-1.059-0.674-1.701-0.674
	c-0.439,0-0.869,0.118-1.245,0.336c-0.377-0.218-0.806-0.336-1.245-0.336c-1.172,0-2.157,0.816-2.417,1.909c-0.007,0-0.013,0-0.02,0
	c-1.371,0-2.485,1.115-2.485,2.485c0,1.371,1.114,2.485,2.485,2.485c0.199,0,0.394-0.023,0.584-0.069
	c0.458,0.434,1.059,0.676,1.703,0.676c0.095,0,0.188-0.007,0.281-0.018c0.04,0.325,0.081,0.749,0.103,1.222
	c-1.304,0.181-2.778,0.603-2.778,1.597c0,0.918,1.257,1.349,2.476,1.551c-0.272,0.844-0.755,1.509-1.579,1.692
	c-0.311,0.069-0.506,0.378-0.437,0.688c0.06,0.269,0.298,0.451,0.562,0.451c0.042,0,0.084-0.005,0.126-0.015
	c1.397-0.312,2.127-1.4,2.488-2.682c0.521,0.039,0.927,0.043,1.058,0.043c0.134,0,0.561-0.004,1.105-0.047
	c0.361,1.282,1.091,2.374,2.489,2.686c0.042,0.01,0.084,0.015,0.126,0.015c0.264,0,0.502-0.183,0.562-0.451
	c0.069-0.311-0.126-0.619-0.437-0.688c-0.825-0.184-1.307-0.853-1.579-1.7c1.204-0.206,2.428-0.637,2.428-1.543
	c0-0.981-1.437-1.406-2.729-1.589c0.019-0.395,0.05-0.754,0.082-1.051c0.374,0.22,0.805,0.342,1.256,0.342
	c0.842,0,1.615-0.424,2.07-1.111c1.382,0.031,2.534-1.098,2.533-2.485C20.997,8.918,19.988,7.846,18.71,7.745z M9.654,16.115
	c0.241-0.143,0.76-0.319,1.528-0.438c-0.011,0.288-0.034,0.58-0.07,0.867C10.383,16.424,9.888,16.254,9.654,16.115z M13.09,16.691
	c-0.294,0-0.569-0.009-0.83-0.024c0.047-0.372,0.075-0.745,0.085-1.108c0.235-0.013,0.482-0.02,0.744-0.02
	c0.28,0,0.544,0.009,0.793,0.022c0.011,0.361,0.037,0.733,0.085,1.103C13.694,16.682,13.402,16.691,13.09,16.691z M15.118,16.535
	c-0.036-0.281-0.058-0.567-0.069-0.851c0.74,0.119,1.241,0.291,1.477,0.431C16.298,16.251,15.82,16.417,15.118,16.535z
	 M13.09,14.387c-0.104,0-0.384,0.002-0.759,0.023c-0.032-0.632-0.096-1.17-0.147-1.527c0.103-0.07,0.202-0.146,0.294-0.231
	c0.456,0.288,1.008,0.417,1.548,0.372c-0.048,0.352-0.101,0.835-0.128,1.388C13.499,14.39,13.199,14.387,13.09,14.387z
	 M18.254,11.529c-0.264-0.052-0.53,0.087-0.639,0.335c-0.213,0.487-0.692,0.801-1.222,0.801c-0.492,0-0.942-0.27-1.176-0.705
	c-0.072-0.135-0.195-0.236-0.342-0.279c-0.055-0.017-0.11-0.025-0.166-0.025c-0.095,0-0.189,0.023-0.273,0.069
	c-0.196,0.106-0.409,0.16-0.633,0.16c-0.375,0-0.722-0.153-0.978-0.43c-0.122-0.132-0.294-0.2-0.476-0.183
	c-0.178,0.017-0.339,0.115-0.435,0.266c-0.113,0.18-0.265,0.324-0.439,0.43c-0.014,0.002-0.027,0.001-0.041,0.003
	c-0.104,0.02-0.195,0.069-0.27,0.134c-0.121,0.036-0.247,0.056-0.376,0.056c-0.422,0-0.81-0.195-1.065-0.535
	c-0.16-0.213-0.445-0.289-0.691-0.182c-0.169,0.074-0.347,0.111-0.531,0.111c-0.735,0-1.333-0.598-1.333-1.333
	s0.598-1.333,1.333-1.333c0.124,0,0.249,0.018,0.372,0.054c0.179,0.051,0.371,0.015,0.517-0.101C9.537,8.728,9.618,8.55,9.61,8.364
	c0-0.005-0.003-0.047-0.003-0.051c0-0.735,0.598-1.333,1.333-1.333c0.318,0,0.626,0.115,0.87,0.324c0.216,0.186,0.536,0.186,0.752,0
	c0.242-0.209,0.551-0.324,0.869-0.324c0.458,0,0.879,0.232,1.126,0.623c0.094,0.148,0.249,0.245,0.423,0.265
	c0.175,0.019,0.348-0.042,0.472-0.166c0.252-0.252,0.587-0.392,0.943-0.392c0.653,0,1.205,0.468,1.313,1.113
	c0.05,0.305,0.331,0.515,0.639,0.478c0.055-0.007,0.11-0.012,0.167-0.012c0.735,0,1.333,0.598,1.333,1.333
	C19.845,11.041,19.096,11.694,18.254,11.529z"/>
</svg>
