<?xml version="1.0" encoding="utf-8"?>
<!-- Generator: Adobe Illustrator 16.0.4, SVG Export Plug-In . SVG Version: 6.00 Build 0)  -->
<!DOCTYPE svg PUBLIC "-//W3C//DTD SVG 1.1//EN" "http://www.w3.org/Graphics/SVG/1.1/DTD/svg11.dtd">
<svg version="1.1" id="Layer_1" xmlns="http://www.w3.org/2000/svg" xmlns:xlink="http://www.w3.org/1999/xlink" x="0px" y="0px"
	 width="24px" height="19.5px" viewBox="0 0 24 19.5" enable-background="new 0 0 24 19.5" xml:space="preserve">
<path d="M24,2.3c-0.7,1-1.5,1.9-2.5,2.6c0,0.2,0,0.4,0,0.6c0,6.5-4.9,14-14,14c-2.7,0-5.3-0.8-7.5-2.2C0.4,17.4,0.8,17.4,1.2,17.4
	c2.3,0,4.4-0.801,6.1-2.102c-2.2,0-4-1.398-4.6-3.398C3,12,3.3,12,3.6,12c0.5,0,0.9-0.1,1.3-0.2C2.7,11.4,1,9.4,1,7
	c0-0.1,0-0.1,0-0.1c0.6,0.3,1.4,0.5,2.2,0.6C1.9,6.6,1,5.1,1,3.4c0-0.9,0.2-1.8,0.7-2.5c2.4,3,6,4.9,10.1,5.1
	c-0.1-0.3-0.1-0.7-0.1-1.1C11.7,2.2,13.9,0,16.6,0c1.4,0,2.7,0.6,3.7,1.6C21.4,1.4,22.4,1,23.4,0.4c-0.4,1.1-1.2,2.1-2.2,2.7
	C22.2,3,23.1,2.7,24,2.3z"/>
</svg>
