<?xml version="1.0" encoding="utf-8"?>
<!-- Generator: Adobe Illustrator 16.0.0, SVG Export Plug-In . SVG Version: 6.00 Build 0)  -->
<!DOCTYPE svg PUBLIC "-//W3C//DTD SVG 1.1//EN" "http://www.w3.org/Graphics/SVG/1.1/DTD/svg11.dtd">
<svg version="1.1" id="Layer_1" xmlns="http://www.w3.org/2000/svg" xmlns:xlink="http://www.w3.org/1999/xlink" x="0px" y="0px"
	 width="32px" height="32px" viewBox="0 0 32 32" enable-background="new 0 0 32 32" xml:space="preserve">
<g>
	<path fill="#161616" d="M20.564,28.096H2.419V3.903h18.145v4.123l2.419-2.696V3.947c0-1.36-1.103-2.463-2.463-2.463H2.463
		C1.103,1.484,0,2.586,0,3.947v24.106c0,1.36,1.103,2.463,2.463,2.463h18.058c1.36,0,2.463-1.103,2.463-2.463v-7.938l-2.419,2.697
		V28.096z"/>
	<path fill="#161616" d="M18.511,8.339c0-0.668-0.541-1.209-1.208-1.209H5.667C5,7.129,4.458,7.671,4.458,8.339
		c0,0.667,0.542,1.209,1.209,1.209h11.635C17.971,9.548,18.511,9.006,18.511,8.339z"/>
	<path fill="#161616" d="M16.845,12.198H5.667c-0.668,0-1.209,0.542-1.209,1.209c0,0.668,0.542,1.21,1.209,1.21h9.008L16.845,12.198
		z"/>
	<path fill="#161616" d="M12.324,17.209H5.667c-0.668,0-1.209,0.542-1.209,1.21c0,0.667,0.542,1.209,1.209,1.209h5.287
		L12.324,17.209z"/>
	<path fill="#161616" d="M4.458,23.488c0,0.668,0.542,1.209,1.209,1.209h3.872c0.015-0.173,0.04-0.268,0.078-0.399l0.582-2.02H5.667
		C5,22.279,4.458,22.82,4.458,23.488z"/>
	<path fill="#161616" d="M22.615,8.455l-8.447,9.416l-0.653,0.729l4.651,4.171l0.652-0.728l8.447-9.416l0.763-0.85l-4.65-4.171
		L22.615,8.455z M22.213,12.708l-5.539,6.175c-0.069,0.078-0.167,0.124-0.271,0.129c-0.104,0.006-0.206-0.03-0.283-0.099
		l-0.274-0.246c-0.161-0.145-0.174-0.392-0.03-0.553l5.539-6.175c0.07-0.078,0.167-0.125,0.271-0.13
		c0.103-0.005,0.205,0.03,0.282,0.1l0.274,0.247C22.345,12.299,22.358,12.547,22.213,12.708z M23.823,9.774l0.274,0.246
		c0.161,0.144,0.174,0.392,0.03,0.553l-0.071,0.079l-0.395,0.441l-0.016,0.018c-0.069,0.078-0.167,0.124-0.271,0.129
		c-0.104,0.006-0.205-0.029-0.282-0.1l-0.275-0.246c-0.078-0.069-0.124-0.167-0.129-0.27c-0.006-0.104,0.03-0.206,0.1-0.283
		l0.481-0.537C23.414,9.643,23.662,9.629,23.823,9.774z"/>
	<polygon fill="#161616" points="24.177,6.715 23.827,7.105 28.476,11.276 28.828,10.884 29.618,10.003 24.969,5.833 	"/>
	<path fill="#161616" d="M31.936,6.826c-0.02-0.358-0.181-0.694-0.447-0.934l-2.636-2.364c-0.267-0.24-0.619-0.363-0.976-0.344
		c-0.358,0.02-0.695,0.18-0.934,0.448l-1.554,1.732l4.65,4.169l1.553-1.732C31.831,7.536,31.955,7.185,31.936,6.826z M29.944,7.797
		L27.126,5.27l0.814-0.906l2.815,2.526L29.944,7.797z"/>
	<path fill="#161616" d="M11.557,25.46c0.192,0.172,0.466,0.219,0.705,0.122l5.345-2.19l-4.648-4.17l-1.599,5.551
		C11.288,25.021,11.365,25.288,11.557,25.46z M13.385,20.705l2.7,2.424l-2.1,0.86l-1.229-1.102L13.385,20.705z"/>
</g>
</svg>
